<?xml version="1.0" encoding="UTF-8"?>
<svg xmlns="http://www.w3.org/2000/svg" xmlns:xlink="http://www.w3.org/1999/xlink" width="16pt" height="16pt" viewBox="0 0 16 16" version="1.1">
<g id="surface1">
<path style=" stroke:none;fill-rule:nonzero;fill:rgb(104,175,219);fill-opacity:1;" d="M 10.699219 8.480469 C 9.980469 7.355469 8.753906 6.6875 7.417969 6.6875 C 6.085938 6.6875 4.859375 7.355469 4.140625 8.480469 L 2.40625 11.1875 C 2.117188 11.636719 1.984375 12.152344 2.019531 12.6875 C 2.058594 13.21875 2.257812 13.714844 2.605469 14.121094 C 2.953125 14.523438 3.410156 14.800781 3.929688 14.921875 C 4.449219 15.039062 4.984375 14.988281 5.472656 14.773438 L 5.503906 14.761719 C 6.734375 14.230469 8.140625 14.234375 9.367188 14.773438 C 9.683594 14.914062 10.015625 14.984375 10.355469 14.984375 C 10.539062 14.984375 10.722656 14.960938 10.90625 14.921875 C 11.425781 14.800781 11.886719 14.523438 12.230469 14.121094 C 12.578125 13.714844 12.78125 13.21875 12.816406 12.6875 C 12.855469 12.152344 12.722656 11.636719 12.433594 11.1875 Z M 10.699219 8.480469 "/>
<path style=" stroke:none;fill-rule:nonzero;fill:rgb(196,107,238);fill-opacity:1;" d="M 2.871094 8.476562 C 3.386719 8.277344 3.78125 7.863281 3.976562 7.304688 C 4.160156 6.773438 4.148438 6.175781 3.933594 5.621094 C 3.71875 5.0625 3.328125 4.609375 2.835938 4.339844 C 2.316406 4.058594 1.746094 4.011719 1.230469 4.210938 C 0.195312 4.609375 -0.28125 5.890625 0.171875 7.066406 C 0.53125 8.003906 1.375 8.597656 2.226562 8.597656 C 2.441406 8.597656 2.660156 8.558594 2.871094 8.476562 Z M 2.871094 8.476562 "/>
<path style=" stroke:none;fill-rule:nonzero;fill:rgb(196,107,238);fill-opacity:1;" d="M 6.238281 6.355469 C 7.535156 6.355469 8.589844 5.15625 8.589844 3.679688 C 8.589844 2.203125 7.535156 1 6.238281 1 C 4.941406 1 3.886719 2.203125 3.886719 3.679688 C 3.886719 5.15625 4.941406 6.355469 6.238281 6.355469 Z M 6.238281 6.355469 "/>
<path style=" stroke:none;fill-rule:nonzero;fill:rgb(196,107,238);fill-opacity:1;" d="M 10.296875 7.015625 C 10.496094 7.078125 10.699219 7.113281 10.902344 7.113281 C 11.847656 7.113281 12.769531 6.421875 13.121094 5.367188 C 13.320312 4.757812 13.308594 4.113281 13.082031 3.554688 C 12.84375 2.96875 12.40625 2.542969 11.84375 2.355469 C 11.285156 2.171875 10.675781 2.25 10.136719 2.574219 C 9.621094 2.890625 9.222656 3.394531 9.023438 4.003906 C 8.597656 5.289062 9.167969 6.636719 10.296875 7.015625 Z M 10.296875 7.015625 "/>
<path style=" stroke:none;fill-rule:nonzero;fill:rgb(196,107,238);fill-opacity:1;" d="M 15.246094 6.703125 L 15.246094 6.699219 C 14.351562 6.039062 13.015625 6.328125 12.265625 7.339844 C 11.515625 8.351562 11.632812 9.714844 12.527344 10.375 C 12.851562 10.613281 13.238281 10.730469 13.628906 10.730469 C 14.316406 10.730469 15.03125 10.378906 15.507812 9.734375 C 16.253906 8.722656 16.136719 7.363281 15.246094 6.703125 Z M 15.246094 6.703125 "/>
</g>
</svg>
